<svg width="288" height="88" viewBox="0 0 288 88" fill="none" xmlns="http://www.w3.org/2000/svg">
<g clip-path="url(#clip0_1523_8194)">
<path d="M28 20.6667L36.1667 35.8334L52.5 38.1668L40.8333 49.8335L43.1667 67.3335L28 59.1668L12.8333 67.3335L15.1667 49.8335L3.5 38.1668L19.8333 35.8334L28 20.6667Z" fill="#FFCA28"/>
<path d="M28 45.1668L36.1667 35.8334L28 20.6667L28 45.1668ZM52.5 38.1668L28 45.1668L40.8333 49.8335L52.5 38.1668ZM43.1667 67.3335L28 45.1668L28 59.1668L43.1667 67.3335Z" fill="url(#paint0_linear_1523_8194)" fill-opacity="0.32"/>
<path d="M12.8334 67.3353L28 45.1687V59.1687L12.8334 67.3353Z" fill="url(#paint1_linear_1523_8194)" fill-opacity="0.32"/>
<path d="M3.5 38.1567L28 45.1567L15.1667 49.8234L3.5 38.1567Z" fill="url(#paint2_linear_1523_8194)" fill-opacity="0.32"/>
<path d="M28 45.2173L19.8333 35.884L28 20.7173V45.2173Z" fill="url(#paint3_linear_1523_8194)" fill-opacity="0.32"/>
<path d="M75.7727 56H72.8182L81.3636 32.7273H84.2727L92.8182 56H89.8636L82.9091 36.4091H82.7273L75.7727 56ZM76.8636 46.9091H88.7727V49.4091H76.8636V46.9091ZM96.267 56V38.5455H98.9489V56H96.267ZM97.6307 35.6364C97.108 35.6364 96.6572 35.4583 96.2784 35.1023C95.9072 34.7462 95.7216 34.3182 95.7216 33.8182C95.7216 33.3182 95.9072 32.8902 96.2784 32.5341C96.6572 32.178 97.108 32 97.6307 32C98.1534 32 98.6004 32.178 98.9716 32.5341C99.3504 32.8902 99.5398 33.3182 99.5398 33.8182C99.5398 34.3182 99.3504 34.7462 98.9716 35.1023C98.6004 35.4583 98.1534 35.6364 97.6307 35.6364ZM107.815 56L102.497 38.5455H105.315L109.088 51.9091H109.27L112.997 38.5455H115.861L119.543 51.8636H119.724L123.497 38.5455H126.315L120.997 56H118.361L114.543 42.5909H114.27L110.452 56H107.815ZM134.997 56.4091C133.891 56.4091 132.887 56.2008 131.986 55.7841C131.084 55.3598 130.368 54.75 129.838 53.9545C129.308 53.1515 129.043 52.1818 129.043 51.0455C129.043 50.0455 129.24 49.2348 129.634 48.6136C130.027 47.9848 130.554 47.4924 131.213 47.1364C131.872 46.7803 132.599 46.5152 133.395 46.3409C134.198 46.1591 135.005 46.0152 135.815 45.9091C136.876 45.7727 137.736 45.6705 138.395 45.6023C139.062 45.5265 139.546 45.4015 139.849 45.2273C140.16 45.053 140.315 44.75 140.315 44.3182V44.2273C140.315 43.1061 140.009 42.2348 139.395 41.6136C138.789 40.9924 137.868 40.6818 136.634 40.6818C135.353 40.6818 134.349 40.9621 133.622 41.5227C132.895 42.0833 132.384 42.6818 132.088 43.3182L129.543 42.4091C129.997 41.3485 130.603 40.5227 131.361 39.9318C132.126 39.3333 132.959 38.9167 133.861 38.6818C134.77 38.4394 135.664 38.3182 136.543 38.3182C137.103 38.3182 137.747 38.3864 138.474 38.5227C139.209 38.6515 139.918 38.9205 140.599 39.3295C141.289 39.7386 141.861 40.3561 142.315 41.1818C142.77 42.0076 142.997 43.1136 142.997 44.5V56H140.315V53.6364H140.179C139.997 54.0152 139.694 54.4205 139.27 54.8523C138.846 55.2841 138.281 55.6515 137.577 55.9545C136.872 56.2576 136.012 56.4091 134.997 56.4091ZM135.406 54C136.467 54 137.361 53.7917 138.088 53.375C138.823 52.9583 139.376 52.4205 139.747 51.7614C140.126 51.1023 140.315 50.4091 140.315 49.6818V47.2273C140.202 47.3636 139.952 47.4886 139.565 47.6023C139.187 47.7083 138.747 47.803 138.247 47.8864C137.755 47.9621 137.274 48.0303 136.804 48.0909C136.342 48.1439 135.967 48.1894 135.679 48.2273C134.982 48.3182 134.33 48.4659 133.724 48.6705C133.126 48.8674 132.641 49.1667 132.27 49.5682C131.906 49.9621 131.724 50.5 131.724 51.1818C131.724 52.1136 132.069 52.8182 132.759 53.2955C133.455 53.7652 134.338 54 135.406 54ZM147.892 56V38.5455H150.574V56H147.892ZM149.256 35.6364C148.733 35.6364 148.282 35.4583 147.903 35.1023C147.532 34.7462 147.347 34.3182 147.347 33.8182C147.347 33.3182 147.532 32.8902 147.903 32.5341C148.282 32.178 148.733 32 149.256 32C149.778 32 150.225 32.178 150.597 32.5341C150.975 32.8902 151.165 33.3182 151.165 33.8182C151.165 34.3182 150.975 34.7462 150.597 35.1023C150.225 35.4583 149.778 35.6364 149.256 35.6364ZM155.486 56V38.5455H158.077V41.1818H158.259C158.577 40.3182 159.152 39.6174 159.986 39.0795C160.819 38.5417 161.759 38.2727 162.804 38.2727C163.001 38.2727 163.247 38.2765 163.543 38.2841C163.838 38.2917 164.062 38.303 164.213 38.3182V41.0455C164.122 41.0227 163.914 40.9886 163.588 40.9432C163.27 40.8902 162.933 40.8636 162.577 40.8636C161.728 40.8636 160.971 41.0417 160.304 41.3977C159.645 41.7462 159.122 42.2311 158.736 42.8523C158.357 43.4659 158.168 44.1667 158.168 44.9545V56H155.486Z" fill="#2D3748"/>
</g>
<defs>
<linearGradient id="paint0_linear_1523_8194" x1="40.25" y1="20.6667" x2="40.25" y2="67.3335" gradientUnits="userSpaceOnUse">
<stop stop-color="#F79009"/>
<stop offset="1" stop-color="#FFCA28"/>
</linearGradient>
<linearGradient id="paint1_linear_1523_8194" x1="20.4167" y1="45.1687" x2="20.4167" y2="67.3353" gradientUnits="userSpaceOnUse">
<stop stop-color="#F79009"/>
<stop offset="1" stop-color="#FFCA28"/>
</linearGradient>
<linearGradient id="paint2_linear_1523_8194" x1="15.75" y1="38.1567" x2="15.75" y2="49.8234" gradientUnits="userSpaceOnUse">
<stop stop-color="#F79009"/>
<stop offset="1" stop-color="#FFCA28"/>
</linearGradient>
<linearGradient id="paint3_linear_1523_8194" x1="23.9167" y1="20.7173" x2="23.9167" y2="45.2173" gradientUnits="userSpaceOnUse">
<stop stop-color="#F79009"/>
<stop offset="1" stop-color="#FFCA28"/>
</linearGradient>
<clipPath id="clip0_1523_8194">
<rect width="288" height="88" fill="white"/>
</clipPath>
</defs>
</svg>
